<svg style="position: absolute; width: 0; height: 0; overflow: hidden;" version="1.1" xmlns="http://www.w3.org/2000/svg" xmlns:xlink="http://www.w3.org/1999/xlink">
<defs>
<symbol id="icon-long-arrow-down" viewBox="0 0 12 28">
<title>long-arrow-down</title>
<path d="M11.953 20.297c0.078 0.187 0.047 0.391-0.078 0.547l-5.469 6c-0.094 0.094-0.219 0.156-0.359 0.156v0c-0.141 0-0.281-0.063-0.375-0.156l-5.547-6c-0.125-0.156-0.156-0.359-0.078-0.547 0.078-0.172 0.25-0.297 0.453-0.297h3.5v-19.5c0-0.281 0.219-0.5 0.5-0.5h3c0.281 0 0.5 0.219 0.5 0.5v19.5h3.5c0.203 0 0.375 0.109 0.453 0.297z"></path>
</symbol>
<symbol id="icon-long-arrow-up" viewBox="0 0 12 28">
<title>long-arrow-up</title>
<path d="M11.953 7.703c-0.078 0.172-0.25 0.297-0.453 0.297h-3.5v19.5c0 0.281-0.219 0.5-0.5 0.5h-3c-0.281 0-0.5-0.219-0.5-0.5v-19.5h-3.5c-0.203 0-0.375-0.109-0.453-0.297s-0.047-0.391 0.078-0.547l5.469-6c0.094-0.094 0.219-0.156 0.359-0.156v0c0.141 0 0.281 0.063 0.375 0.156l5.547 6c0.125 0.156 0.156 0.359 0.078 0.547z"></path>
</symbol>
<symbol id="icon-long-arrow-left" viewBox="0 0 29 28">
<title>long-arrow-left</title>
<path d="M28 12.5v3c0 0.281-0.219 0.5-0.5 0.5h-19.5v3.5c0 0.203-0.109 0.375-0.297 0.453s-0.391 0.047-0.547-0.078l-6-5.469c-0.094-0.094-0.156-0.219-0.156-0.359v0c0-0.141 0.063-0.281 0.156-0.375l6-5.531c0.156-0.141 0.359-0.172 0.547-0.094 0.172 0.078 0.297 0.25 0.297 0.453v3.5h19.5c0.281 0 0.5 0.219 0.5 0.5z"></path>
</symbol>
<symbol id="icon-long-arrow-right" viewBox="0 0 27 28">
<title>long-arrow-right</title>
<path d="M27 13.953c0 0.141-0.063 0.281-0.156 0.375l-6 5.531c-0.156 0.141-0.359 0.172-0.547 0.094-0.172-0.078-0.297-0.25-0.297-0.453v-3.5h-19.5c-0.281 0-0.5-0.219-0.5-0.5v-3c0-0.281 0.219-0.5 0.5-0.5h19.5v-3.5c0-0.203 0.109-0.375 0.297-0.453s0.391-0.047 0.547 0.078l6 5.469c0.094 0.094 0.156 0.219 0.156 0.359v0z"></path>
</symbol>
<symbol id="icon-sitemap" viewBox="0 0 28 28">
<title>sitemap</title>
<path d="M28 19.5v5c0 0.828-0.672 1.5-1.5 1.5h-5c-0.828 0-1.5-0.672-1.5-1.5v-5c0-0.828 0.672-1.5 1.5-1.5h1.5v-3h-8v3h1.5c0.828 0 1.5 0.672 1.5 1.5v5c0 0.828-0.672 1.5-1.5 1.5h-5c-0.828 0-1.5-0.672-1.5-1.5v-5c0-0.828 0.672-1.5 1.5-1.5h1.5v-3h-8v3h1.5c0.828 0 1.5 0.672 1.5 1.5v5c0 0.828-0.672 1.5-1.5 1.5h-5c-0.828 0-1.5-0.672-1.5-1.5v-5c0-0.828 0.672-1.5 1.5-1.5h1.5v-3c0-1.094 0.906-2 2-2h8v-3h-1.5c-0.828 0-1.5-0.672-1.5-1.5v-5c0-0.828 0.672-1.5 1.5-1.5h5c0.828 0 1.5 0.672 1.5 1.5v5c0 0.828-0.672 1.5-1.5 1.5h-1.5v3h8c1.094 0 2 0.906 2 2v3h1.5c0.828 0 1.5 0.672 1.5 1.5z"></path>
</symbol>
<symbol id="icon-shopping-basket" viewBox="0 0 32 28">
<title>shopping-basket</title>
<path d="M30 12c1.109 0 2 0.891 2 2s-0.891 2-2 2h-0.234l-1.797 10.344c-0.172 0.953-1 1.656-1.969 1.656h-20c-0.969 0-1.797-0.703-1.969-1.656l-1.797-10.344h-0.234c-1.109 0-2-0.891-2-2s0.891-2 2-2h28zM7.578 24.5c0.547-0.047 0.969-0.531 0.922-1.078l-0.5-6.5c-0.047-0.547-0.531-0.969-1.078-0.922s-0.969 0.531-0.922 1.078l0.5 6.5c0.047 0.516 0.484 0.922 1 0.922h0.078zM14 23.5v-6.5c0-0.547-0.453-1-1-1s-1 0.453-1 1v6.5c0 0.547 0.453 1 1 1s1-0.453 1-1zM20 23.5v-6.5c0-0.547-0.453-1-1-1s-1 0.453-1 1v6.5c0 0.547 0.453 1 1 1s1-0.453 1-1zM25.5 23.578l0.5-6.5c0.047-0.547-0.375-1.031-0.922-1.078s-1.031 0.375-1.078 0.922l-0.5 6.5c-0.047 0.547 0.375 1.031 0.922 1.078h0.078c0.516 0 0.953-0.406 1-0.922zM7.438 4.562l-1.453 6.438h-2.063l1.578-6.891c0.406-1.828 2.016-3.109 3.891-3.109h2.609c0-0.547 0.453-1 1-1h6c0.547 0 1 0.453 1 1h2.609c1.875 0 3.484 1.281 3.891 3.109l1.578 6.891h-2.063l-1.453-6.438c-0.219-0.922-1.016-1.563-1.953-1.563h-2.609c0 0.547-0.453 1-1 1h-6c-0.547 0-1-0.453-1-1h-2.609c-0.938 0-1.734 0.641-1.953 1.563z"></path>
</symbol>
<symbol id="icon-balance-scale" viewBox="0 0 34 28">
<title>balance-scale</title>
<path d="M27 7l-6 11h12zM7 7l-6 11h12zM19.828 4c-0.297 0.844-0.984 1.531-1.828 1.828v20.172h9.5c0.281 0 0.5 0.219 0.5 0.5v1c0 0.281-0.219 0.5-0.5 0.5h-21c-0.281 0-0.5-0.219-0.5-0.5v-1c0-0.281 0.219-0.5 0.5-0.5h9.5v-20.172c-0.844-0.297-1.531-0.984-1.828-1.828h-7.672c-0.281 0-0.5-0.219-0.5-0.5v-1c0-0.281 0.219-0.5 0.5-0.5h7.672c0.422-1.172 1.516-2 2.828-2s2.406 0.828 2.828 2h7.672c0.281 0 0.5 0.219 0.5 0.5v1c0 0.281-0.219 0.5-0.5 0.5h-7.672zM17 4.25c0.688 0 1.25-0.562 1.25-1.25s-0.562-1.25-1.25-1.25-1.25 0.562-1.25 1.25 0.562 1.25 1.25 1.25zM34 18c0 3.219-4.453 4.5-7 4.5s-7-1.281-7-4.5v0c0-0.609 5.453-10.266 6.125-11.484 0.172-0.313 0.516-0.516 0.875-0.516s0.703 0.203 0.875 0.516c0.672 1.219 6.125 10.875 6.125 11.484v0zM14 18c0 3.219-4.453 4.5-7 4.5s-7-1.281-7-4.5v0c0-0.609 5.453-10.266 6.125-11.484 0.172-0.313 0.516-0.516 0.875-0.516s0.703 0.203 0.875 0.516c0.672 1.219 6.125 10.875 6.125 11.484z"></path>
</symbol>
<symbol id="icon-address-card-o" viewBox="0 0 32 28">
<title>address-card-o</title>
<path d="M16 17.672c0 1.359-0.891 2.328-2 2.328h-8c-1.109 0-2-0.969-2-2.328 0-2.422 0.594-5.109 3.062-5.109 0.766 0.438 1.797 1.188 2.938 1.188s2.172-0.75 2.938-1.188c2.469 0 3.062 2.688 3.062 5.109zM13.547 9.547c0 1.969-1.594 3.547-3.547 3.547s-3.547-1.578-3.547-3.547c0-1.953 1.594-3.547 3.547-3.547s3.547 1.594 3.547 3.547zM28 16.5v1c0 0.281-0.219 0.5-0.5 0.5h-9c-0.281 0-0.5-0.219-0.5-0.5v-1c0-0.281 0.219-0.5 0.5-0.5h9c0.281 0 0.5 0.219 0.5 0.5zM28 12.563v0.875c0 0.313-0.25 0.562-0.562 0.562h-8.875c-0.313 0-0.562-0.25-0.562-0.562v-0.875c0-0.313 0.25-0.562 0.562-0.562h8.875c0.313 0 0.562 0.25 0.562 0.562zM28 8.5v1c0 0.281-0.219 0.5-0.5 0.5h-9c-0.281 0-0.5-0.219-0.5-0.5v-1c0-0.281 0.219-0.5 0.5-0.5h9c0.281 0 0.5 0.219 0.5 0.5zM30 23.5v-19c0-0.266-0.234-0.5-0.5-0.5h-27c-0.266 0-0.5 0.234-0.5 0.5v19c0 0.266 0.234 0.5 0.5 0.5h5.5v-1.5c0-0.281 0.219-0.5 0.5-0.5h1c0.281 0 0.5 0.219 0.5 0.5v1.5h12v-1.5c0-0.281 0.219-0.5 0.5-0.5h1c0.281 0 0.5 0.219 0.5 0.5v1.5h5.5c0.266 0 0.5-0.234 0.5-0.5zM32 4.5v19c0 1.375-1.125 2.5-2.5 2.5h-27c-1.375 0-2.5-1.125-2.5-2.5v-19c0-1.375 1.125-2.5 2.5-2.5h27c1.375 0 2.5 1.125 2.5 2.5z"></path>
</symbol>
<symbol id="icon-suitcase" viewBox="0 0 28 28">
<title>suitcase</title>
<path d="M10 6h8v-2h-8v2zM4.5 6v20h-1c-1.922 0-3.5-1.578-3.5-3.5v-13c0-1.922 1.578-3.5 3.5-3.5h1zM22 6v20h-16v-20h2v-2.5c0-0.828 0.672-1.5 1.5-1.5h9c0.828 0 1.5 0.672 1.5 1.5v2.5h2zM28 9.5v13c0 1.922-1.578 3.5-3.5 3.5h-1v-20h1c1.922 0 3.5 1.578 3.5 3.5z"></path>
</symbol>
<symbol id="icon-chain2" viewBox="0 0 26 28">
<title>chain2</title>
<path d="M22.75 19c0-0.406-0.156-0.781-0.438-1.062l-3.25-3.25c-0.281-0.281-0.672-0.438-1.062-0.438-0.453 0-0.812 0.172-1.125 0.5 0.516 0.516 1.125 0.953 1.125 1.75 0 0.828-0.672 1.5-1.5 1.5-0.797 0-1.234-0.609-1.75-1.125-0.328 0.313-0.516 0.672-0.516 1.141 0 0.391 0.156 0.781 0.438 1.062l3.219 3.234c0.281 0.281 0.672 0.422 1.062 0.422s0.781-0.141 1.062-0.406l2.297-2.281c0.281-0.281 0.438-0.656 0.438-1.047zM11.766 7.984c0-0.391-0.156-0.781-0.438-1.062l-3.219-3.234c-0.281-0.281-0.672-0.438-1.062-0.438s-0.781 0.156-1.062 0.422l-2.297 2.281c-0.281 0.281-0.438 0.656-0.438 1.047 0 0.406 0.156 0.781 0.438 1.062l3.25 3.25c0.281 0.281 0.672 0.422 1.062 0.422 0.453 0 0.812-0.156 1.125-0.484-0.516-0.516-1.125-0.953-1.125-1.75 0-0.828 0.672-1.5 1.5-1.5 0.797 0 1.234 0.609 1.75 1.125 0.328-0.313 0.516-0.672 0.516-1.141zM25.75 19c0 1.188-0.484 2.344-1.328 3.172l-2.297 2.281c-0.844 0.844-1.984 1.297-3.172 1.297-1.203 0-2.344-0.469-3.187-1.328l-3.219-3.234c-0.844-0.844-1.297-1.984-1.297-3.172 0-1.234 0.5-2.406 1.375-3.266l-1.375-1.375c-0.859 0.875-2.016 1.375-3.25 1.375-1.188 0-2.344-0.469-3.187-1.313l-3.25-3.25c-0.859-0.859-1.313-1.984-1.313-3.187 0-1.188 0.484-2.344 1.328-3.172l2.297-2.281c0.844-0.844 1.984-1.297 3.172-1.297 1.203 0 2.344 0.469 3.187 1.328l3.219 3.234c0.844 0.844 1.297 1.984 1.297 3.172 0 1.234-0.5 2.406-1.375 3.266l1.375 1.375c0.859-0.875 2.016-1.375 3.25-1.375 1.188 0 2.344 0.469 3.187 1.313l3.25 3.25c0.859 0.859 1.313 1.984 1.313 3.187z"></path>
</symbol>
<symbol id="icon-arrow-left" viewBox="0 0 24 24">
<title>arrow-left</title>
<path d="M17.997 10h-9v-4.5l-6.494 6.5 6.494 6.5v-4.5h9.047c1.080 0 1.953-0.894 1.953-2s-0.92-2-2-2z"></path>
</symbol>
<symbol id="icon-arrow-up" viewBox="0 0 24 24">
<title>arrow-up</title>
<path d="M14 19v-9h4.5l-6.5-6.494-6.5 6.494h4.5v9.047c0 1.080 0.894 1.953 2 1.953s2-0.92 2-2z"></path>
</symbol>
<symbol id="icon-arrow-down" viewBox="0 0 24 24">
<title>arrow-down</title>
<path d="M9.999 6v9h-4.5l6.5 6.494 6.5-6.494h-4.5v-9.047c0-1.080-0.894-1.953-2-1.953-1.107 0-2 0.92-2 2z"></path>
</symbol>
<symbol id="icon-arrow-right" viewBox="0 0 24 24">
<title>arrow-right</title>
<path d="M5 14h9v4.5l6.494-6.5-6.494-6.5v4.5h-9.047c-1.080 0-1.953 0.894-1.953 2s0.92 2 2 2z"></path>
</symbol>
<symbol id="icon-filter2" viewBox="0 0 24 24">
<title>filter2</title>
<path d="M22.906 2.581c-0.162-0.356-0.519-0.581-0.906-0.581h-20c-0.387 0-0.744 0.225-0.906 0.581s-0.106 0.769 0.144 1.069l7.762 9.175v6.175c0 0.381 0.213 0.725 0.55 0.894l4 2c0.144 0.069 0.294 0.106 0.45 0.106 0.181 0 0.363-0.050 0.525-0.15 0.294-0.181 0.475-0.506 0.475-0.85v-8.175l7.763-9.181c0.25-0.294 0.306-0.712 0.144-1.062zM13.237 11.813c-0.15 0.181-0.237 0.406-0.237 0.644v6.925l-2-1v-5.925c0-0.237-0.081-0.462-0.237-0.644l-6.606-7.812h15.687l-6.606 7.812z"></path>
</symbol>
<symbol id="icon-zoom-out" viewBox="0 0 24 24">
<title>zoom-out</title>
<path d="M21.706 20.294l-3.675-3.675c1.231-1.538 1.969-3.494 1.969-5.613 0-4.962-4.038-9-9-9-4.962-0.006-9 4.031-9 8.994s4.038 9 9 9c2.119 0 4.075-0.738 5.613-1.969l3.675 3.675c0.194 0.194 0.45 0.294 0.706 0.294s0.513-0.1 0.706-0.294c0.4-0.387 0.4-1.025 0.006-1.413zM4 11c0-3.862 3.138-7 7-7s7 3.138 7 7c0 1.894-0.756 3.612-1.981 4.875-0.025 0.025-0.056 0.044-0.081 0.069s-0.050 0.050-0.069 0.081c-1.263 1.225-2.981 1.981-4.875 1.981-3.856-0.006-6.994-3.144-6.994-7.006z"></path>
<path d="M14 10h-6c-0.55 0-1 0.45-1 1s0.45 1 1 1h6c0.55 0 1-0.45 1-1s-0.45-1-1-1z"></path>
</symbol>
<symbol id="icon-zoom-in2" viewBox="0 0 24 24">
<title>zoom-in2</title>
<path d="M21.706 20.294l-3.675-3.675c1.231-1.538 1.969-3.494 1.969-5.613 0-4.962-4.038-9-9-9-4.962-0.006-9 4.031-9 8.994s4.038 9 9 9c2.119 0 4.075-0.738 5.613-1.969l3.675 3.675c0.194 0.194 0.45 0.294 0.706 0.294s0.513-0.1 0.706-0.294c0.4-0.387 0.4-1.025 0.006-1.413zM4 11c0-3.862 3.138-7 7-7s7 3.138 7 7c0 1.894-0.756 3.612-1.981 4.875-0.025 0.025-0.056 0.044-0.081 0.069s-0.050 0.050-0.069 0.081c-1.263 1.225-2.981 1.981-4.875 1.981-3.856-0.006-6.994-3.144-6.994-7.006z"></path>
<path d="M14 10h-2v-2c0-0.55-0.45-1-1-1s-1 0.45-1 1v2h-2c-0.55 0-1 0.45-1 1s0.45 1 1 1h2v2c0 0.55 0.45 1 1 1s1-0.45 1-1v-2h2c0.55 0 1-0.45 1-1s-0.45-1-1-1z"></path>
</symbol>
<symbol id="icon-zoom_out" viewBox="0 0 24 24">
<title>zoom_out</title>
<path d="M6.984 9h5.016v0.984h-5.016v-0.984zM9.516 14.016c2.484 0 4.5-2.016 4.5-4.5s-2.016-4.5-4.5-4.5-4.5 2.016-4.5 4.5 2.016 4.5 4.5 4.5zM15.516 14.016l4.969 4.969-1.5 1.5-4.969-4.969v-0.797l-0.281-0.281c-1.125 0.984-2.625 1.547-4.219 1.547-3.609 0-6.516-2.859-6.516-6.469s2.906-6.516 6.516-6.516 6.469 2.906 6.469 6.516c0 1.594-0.563 3.094-1.547 4.219l0.281 0.281h0.797z"></path>
</symbol>
<symbol id="icon-zoom_in" viewBox="0 0 24 24">
<title>zoom_in</title>
<path d="M12 9.984h-2.016v2.016h-0.984v-2.016h-2.016v-0.984h2.016v-2.016h0.984v2.016h2.016v0.984zM9.516 14.016c2.484 0 4.5-2.016 4.5-4.5s-2.016-4.5-4.5-4.5-4.5 2.016-4.5 4.5 2.016 4.5 4.5 4.5zM15.516 14.016l4.969 4.969-1.5 1.5-4.969-4.969v-0.797l-0.281-0.281c-1.125 0.984-2.625 1.547-4.219 1.547-3.609 0-6.516-2.859-6.516-6.469s2.906-6.516 6.516-6.516 6.469 2.906 6.469 6.516c0 1.594-0.563 3.094-1.547 4.219l0.281 0.281h0.797z"></path>
</symbol>
<symbol id="icon-create_new_folder" viewBox="0 0 24 24">
<title>create_new_folder</title>
<path d="M18.984 14.016v-2.016h-3v-3h-1.969v3h-3v2.016h3v3h1.969v-3h3zM20.016 6c1.125 0 1.969 0.891 1.969 2.016v9.984c0 1.125-0.844 2.016-1.969 2.016h-16.031c-1.125 0-1.969-0.891-1.969-2.016v-12c0-1.125 0.844-2.016 1.969-2.016h6l2.016 2.016h8.016z"></path>
</symbol>
<symbol id="icon-flow-children" viewBox="0 0 24 24">
<title>flow-children</title>
<path d="M17 16c-1.305 0-2.403 0.837-2.816 2h-3.184c-1.654 0-3-1.346-3-3v-3.025c0.838 0.634 1.87 1.025 3 1.025h3.184c0.413 1.163 1.512 2 2.816 2 1.657 0 3-1.343 3-3s-1.343-3-3-3c-1.305 0-2.403 0.837-2.816 2h-3.184c-1.654 0-3-1.346-3-3v-0.184c1.163-0.413 2-1.512 2-2.816 0-1.657-1.343-3-3-3s-3 1.343-3 3c0 1.304 0.837 2.403 2 2.816v7.184c0 2.757 2.243 5 5 5h3.184c0.413 1.163 1.512 2 2.816 2 1.657 0 3-1.343 3-3s-1.343-3-3-3zM17 11c0.552 0 1 0.449 1 1s-0.448 1-1 1-1-0.449-1-1 0.448-1 1-1zM7 4c0.552 0 1 0.449 1 1s-0.448 1-1 1-1-0.449-1-1 0.448-1 1-1zM17 20c-0.552 0-1-0.449-1-1s0.448-1 1-1 1 0.449 1 1-0.448 1-1 1z"></path>
</symbol>
<symbol id="icon-folder-delete" viewBox="0 0 24 24">
<title>folder-delete</title>
<path d="M18 6h-6c0-1.104-0.896-2-2-2h-4c-1.654 0-3 1.346-3 3v10c0 1.654 1.346 3 3 3h12c1.654 0 3-1.346 3-3v-8c0-1.654-1.346-3-3-3zM6 6h4c0 1.104 0.896 2 2 2h6c0.552 0 1 0.448 1 1h-14v-2c0-0.552 0.448-1 1-1zM18 18h-12c-0.552 0-1-0.448-1-1v-7h14v7c0 0.552-0.448 1-1 1z"></path>
<path d="M15 14h-6c-0.553 0-1-0.447-1-1s0.447-1 1-1h6c0.553 0 1 0.447 1 1s-0.447 1-1 1z"></path>
</symbol>
<symbol id="icon-folder-add" viewBox="0 0 24 24">
<title>folder-add</title>
<path d="M18 6h-6c0-1.104-0.896-2-2-2h-4c-1.654 0-3 1.346-3 3v10c0 1.654 1.346 3 3 3h12c1.654 0 3-1.346 3-3v-8c0-1.654-1.346-3-3-3zM18 18h-12c-0.552 0-1-0.448-1-1v-7h4c0.275 0 0.5-0.225 0.5-0.5s-0.225-0.5-0.5-0.5h-4v-2c0-0.552 0.448-1 1-1h4c0 1.104 0.896 2 2 2h6c0.552 0 1 0.448 1 1h-4c-0.275 0-0.5 0.225-0.5 0.5s0.225 0.5 0.5 0.5h4v7c0 0.552-0.448 1-1 1z"></path>
<path d="M15 12h-2v-2c0-0.553-0.447-1-1-1s-1 0.447-1 1v2h-2c-0.553 0-1 0.447-1 1s0.447 1 1 1h2v2c0 0.553 0.447 1 1 1s1-0.447 1-1v-2h2c0.553 0 1-0.447 1-1s-0.447-1-1-1z"></path>
</symbol>
<symbol id="icon-link" viewBox="0 0 24 24">
<title>link</title>
<path d="M18.277 6.321c-0.43-0.43-1.126-0.43-1.556 0l-1.721 1.722-0.308-0.308c-1.168-1.168-3.216-1.168-4.384 0l-4.172 4.172c-0.584 0.584-0.906 1.363-0.906 2.192s0.322 1.608 0.906 2.192l0.308 0.308-1.722 1.722c-0.43 0.43-0.43 1.126 0 1.556 0.215 0.215 0.496 0.322 0.778 0.322s0.563-0.107 0.778-0.322l1.722-1.722 0.308 0.308c0.584 0.584 1.362 0.906 2.192 0.906s1.608-0.322 2.192-0.906l4.172-4.172c0.584-0.584 0.906-1.362 0.906-2.192s-0.322-1.608-0.906-2.192l-0.308-0.308 1.722-1.722c0.429-0.43 0.429-1.126-0.001-1.556zM15.308 12.735l-4.172 4.172c-0.168 0.168-0.402 0.253-0.636 0.253s-0.468-0.084-0.636-0.253l-0.308-0.308 0.722-0.722c0.43-0.43 0.43-1.126 0-1.556-0.215-0.215-0.496-0.322-0.778-0.322s-0.563 0.107-0.778 0.322l-0.722 0.722-0.308-0.308c-0.168-0.168-0.261-0.395-0.261-0.636s0.093-0.468 0.261-0.636l4.172-4.172c0.168-0.168 0.394-0.261 0.636-0.261s0.468 0.093 0.636 0.261l0.308 0.308-0.722 0.722c-0.43 0.43-0.43 1.126 0 1.556 0.215 0.215 0.496 0.322 0.778 0.322s0.563-0.107 0.778-0.322l0.722-0.722 0.308 0.308c0.168 0.168 0.261 0.395 0.261 0.636s-0.093 0.468-0.261 0.636z"></path>
</symbol>
<symbol id="icon-git-branch" viewBox="0 0 20 32">
<title>git-branch</title>
<path d="M16 6c-2.219 0-4 1.781-4 4 0 1.469 0.813 2.75 2 3.438v0.563c0 2-2 4-4 4-1.656 0-2.969 0.344-4 0.906v-9.469c1.188-0.688 2-1.969 2-3.438 0-2.219-1.781-4-4-4s-4 1.781-4 4c0 1.469 0.813 2.75 2 3.438v13.094c-1.188 0.688-2 1.969-2 3.438 0 2.219 1.781 4 4 4s4-1.781 4-4c0-1.063-0.406-2-1.063-2.719 0.594-0.719 1.531-1.281 3.063-1.281 4 0 8-4 8-8v-0.563c1.188-0.688 2-1.969 2-3.438 0-2.219-1.781-4-4-4zM4 4c1.094 0 2 0.906 2 2s-0.906 2-2 2-2-0.906-2-2 0.906-2 2-2zM4 28c-1.094 0-2-0.906-2-2s0.906-2 2-2 2 0.906 2 2-0.906 2-2 2zM16 12c-1.094 0-2-0.906-2-2s0.906-2 2-2 2 0.906 2 2-0.906 2-2 2z"></path>
</symbol>
<symbol id="icon-git-merge" viewBox="0 0 24 32">
<title>git-merge</title>
<path d="M20 14c-1.488 0-2.77 0.822-3.457 2.028-0.18-0.013-0.355-0.028-0.543-0.028-4.096 0-7.982-3.12-9.4-6.982 0.853-0.733 1.4-1.808 1.4-3.018 0-2.208-1.792-4-4-4s-4 1.792-4 4c0 1.476 0.808 2.752 2 3.446v13.108c-1.192 0.693-2 1.969-2 3.445 0 2.207 1.792 4 4 4s4-1.793 4-4c0-1.477-0.808-2.752-2-3.445v-7.196c2.63 2.782 6.262 4.642 10 4.642 0.199 0 0.363-0.014 0.543-0.020 0.691 1.201 1.973 2.020 3.457 2.020 2.207 0 4-1.793 4-4s-1.793-4-4-4zM4 28c-1.103 0-2-0.895-2-2 0-1.104 0.897-2 2-2 1.106 0 2 0.896 2 2 0 1.105-0.894 2-2 2zM4 8c-1.103 0-2-0.894-2-2s0.897-2 2-2c1.106 0 2 0.894 2 2s-0.894 2-2 2zM20 20c-1.104 0-2-0.895-2-2s0.896-2 2-2c1.105 0 2 0.894 2 2s-0.895 2-2 2z"></path>
</symbol>
<symbol id="icon-link6" viewBox="0 0 32 32">
<title>link6</title>
<path d="M24 8h-4.313c1.5 1 2.906 2.781 3.344 4h0.938c2.031 0 4 2 4 4s-2.031 4-4 4h-6c-1.969 0-4-2-4-4 0-0.719 0.219-1.406 0.563-2h-4.281c-0.156 0.656-0.25 1.313-0.25 2 0 4 3.969 8 7.969 8s2.031 0 6.031 0 8-4 8-8-4-8-8-8zM8.969 20h-0.938c-2.031 0-4-2-4-4s2.031-4 4-4h6c1.969 0 4 2 4 4 0 0.719-0.219 1.406-0.563 2h4.281c0.156-0.656 0.25-1.313 0.25-2 0-4-3.969-8-7.969-8s-2.031 0-6.031 0-8 4-8 8 4 8 8 8h4.313c-1.5-1-2.906-2.781-3.344-4z"></path>
</symbol>
<symbol id="icon-repo-forked" viewBox="0 0 24 32">
<title>repo-forked</title>
<path d="M24 4c0-2.219-1.781-4-4-4s-4 1.781-4 4c0 1.469 0.813 2.781 2 3.469v3.313l-6 6.625-6-6.625v-3.313c1.188-0.688 2-1.969 2-3.469 0-2.219-1.781-4-4-4s-4 1.781-4 4c0 1.469 0.813 2.781 2 3.469v4.875l8 8.813v3.406c-1.188 0.688-2 1.969-2 3.469 0 2.219 1.781 4 4 4s4-1.781 4-4c0-1.469-0.813-2.781-2-3.469v-3.406l8-8.813v-4.875c1.188-0.688 2-1.969 2-3.469zM4 2.031c1.063 0 1.938 0.875 1.938 1.938s-0.875 1.938-1.938 1.938-1.938-0.875-1.938-1.938 0.875-1.938 1.938-1.938zM12 29.875c-1.063 0-1.938-0.875-1.938-1.938s0.875-1.938 1.938-1.938 1.938 0.875 1.938 1.938-0.875 1.938-1.938 1.938zM20 2.031c1.063 0 1.938 0.875 1.938 1.938s-0.875 1.938-1.938 1.938-1.938-0.875-1.938-1.938 0.875-1.938 1.938-1.938z"></path>
</symbol>
<symbol id="icon-filter" viewBox="0 0 32 32">
<title>filter</title>
<path d="M32 4.906c0 3.765-10.101 12.581-11.987 16.347v7.789c0 0.021-0.012 0.036-0.014 0.057v0.901c0 1.104-0.896 2-1.999 2h-4c-1.104 0-2-0.896-2-2v-0.899c-0.002-0.021-0.015-0.036-0.015-0.059v-7.789c-1.883-3.766-11.985-12.582-11.985-16.347h0.029c-0.006-0.042-0.029-0.078-0.029-0.118 0-2.141 7.167-4.788 16-4.788s16 2.647 16 4.788c0 0.040-0.023 0.076-0.030 0.118h0.030zM16.17 1.984c-7.751 0-14.184 1.245-14.184 3.528 0 2.282 6.433 4.505 14.184 4.505 7.752 0 13.81-2.223 13.81-4.505-0.001-2.283-6.058-3.528-13.81-3.528z"></path>
</symbol>
<symbol id="icon-briefcase" viewBox="0 0 32 32">
<title>briefcase</title>
<path d="M29 32h-1v-10h4v7c0 1.656-1.343 3-3 3zM28 10h1c1.657 0 3 1.344 3 3v8h-4v-11zM6 22h8v2c0 0.553 0.448 1 1 1h2c0.553 0 1-0.447 1-1v-2h8v10h-20v-10zM18 21v-3c0-0.553-0.447-1-1-1h-2c-0.552 0-1 0.447-1 1v3h-8v-11h2v-2.5c0-4.142 3.582-7.5 8-7.5s8 3.358 8 7.5v2.5h2v11h-8zM20 8c0-2.209-1.791-4-4-4s-4 1.791-4 4v2h8v-2zM0 29v-7h4v10h-1c-1.657 0-3-1.344-3-3zM0 13c0-1.656 1.343-3 3-3h1v11h-4v-8z"></path>
</symbol>
<symbol id="icon-zoom-out3" viewBox="0 0 32 32">
<title>zoom-out3</title>
<path d="M31.12 26.869l-5.304-5.303c1.398-2.181 2.232-4.759 2.232-7.542 0-7.746-6.278-14.024-14.024-14.024s-14.024 6.278-14.024 14.024 6.279 14.024 14.024 14.024c2.783 0 5.361-0.834 7.541-2.232l5.304 5.304c1.174 1.174 3.077 1.174 4.25 0s1.174-3.077 0-4.25zM14.024 24.041c-5.532 0-10.017-4.484-10.017-10.017s4.485-10.017 10.017-10.017c5.533 0 10.017 4.485 10.017 10.017s-4.484 10.017-10.017 10.017zM8.014 16.027h12.021v-4.007h-12.021v4.007z"></path>
</symbol>
<symbol id="icon-zoom-in" viewBox="0 0 32 32">
<title>zoom-in</title>
<path d="M31.12 31.12c-1.174 1.174-3.077 1.174-4.25 0l-5.304-5.304c-2.181 1.398-4.758 2.232-7.541 2.232-7.745 0-14.024-6.278-14.024-14.024s6.279-14.024 14.024-14.024c7.746 0 14.024 6.278 14.024 14.024 0 2.783-0.834 5.361-2.232 7.542l5.304 5.303c1.174 1.174 1.174 3.076 0 4.25zM14.024 4.007c-5.532 0-10.017 4.485-10.017 10.017s4.485 10.017 10.017 10.017c5.533 0 10.017-4.484 10.017-10.017s-4.484-10.017-10.017-10.017zM16.027 20.034h-4.007v-4.007h-4.007v-4.007h4.007v-4.007h4.007v4.007h4.007v4.007h-4.007v4.007z"></path>
</symbol>
<symbol id="icon-search3" viewBox="0 0 32 32">
<title>search3</title>
<path d="M31.12 31.12c-1.174 1.174-3.077 1.174-4.25 0l-5.304-5.304c-2.18 1.399-4.758 2.232-7.541 2.232-7.745 0-14.024-6.278-14.024-14.024s6.279-14.024 14.024-14.024c7.746 0 14.024 6.278 14.024 14.024 0 2.782-0.834 5.361-2.232 7.542l5.304 5.304c1.174 1.174 1.174 3.076 0 4.249zM14.024 4.007c-5.532 0-10.017 4.484-10.017 10.017s4.485 10.017 10.017 10.017c5.533 0 10.017-4.484 10.017-10.017s-4.484-10.017-10.017-10.017z"></path>
</symbol>
<symbol id="icon-hyperlink" viewBox="0 0 32 32">
<title>hyperlink</title>
<path d="M31.467 8.267l-7.733-7.733c-0.711-0.711-1.866-0.711-2.577 0l-7.733 7.733c-0.713 0.711-0.713 1.866 0 2.579l1.288 1.288 7.733-7.733 5.156 5.156-7.733 7.733 1.29 1.29c0.711 0.711 1.866 0.711 2.577 0l7.733-7.733c0.711-0.713 0.711-1.868 0-2.579zM17.29 19.867l-7.733 7.733-5.156-5.156 7.733-7.733-1.29-1.29c-0.711-0.711-1.866-0.711-2.577 0l-7.733 7.733c-0.711 0.713-0.711 1.868 0 2.579l7.733 7.733c0.711 0.711 1.866 0.711 2.577 0l7.733-7.733c0.713-0.711 0.713-1.866 0-2.579l-1.288-1.288zM10.844 21.154c0.713 0.713 1.866 0.713 2.579 0l7.733-7.733c0.711-0.711 0.711-1.864 0-2.575-0.713-0.713-1.866-0.713-2.579 0l-7.733 7.733c-0.711 0.711-0.711 1.864 0 2.575z"></path>
</symbol>
<symbol id="icon-hash" viewBox="0 0 28 32">
<title>hash</title>
<path d="M28 12v-4h-5.004l1-8h-4l-1 8h-7.998l1-8h-4l-1 8h-6.998v4h6.498l-0.998 8h-5.5v4h5l-1 8h4l1-8h7.998l-1 8h4.002l1-8h7v-4h-6.5l0.996-8h5.504zM17.498 20h-7.998l0.998-8h7.998l-0.998 8z"></path>
</symbol>
<symbol id="icon-book-alt2" viewBox="0 0 32 32">
<title>book-alt2</title>
<path d="M16 6c0 0-4-4-16-4v24c12.125 0 16 4 16 4s3.875-4 16-4v-24c-12 0-16 4-16 4zM4 6c5.084 0.426 8.203 1.602 10 2.555v16.109c-1.797-0.949-4.916-2.125-10-2.555v-16.109zM28 22.109c-5.086 0.43-8.203 1.604-10 2.555v-16.109c1.797-0.953 4.914-2.129 10-2.555v16.109z"></path>
</symbol>
<symbol id="icon-book" viewBox="0 0 32 32">
<title>book</title>
<path d="M28 4v26h-21c-1.657 0-3-1.343-3-3s1.343-3 3-3h19v-24h-20c-2.2 0-4 1.8-4 4v24c0 2.2 1.8 4 4 4h24v-28h-2z"></path>
<path d="M7.002 26v0c-0.001 0-0.001 0-0.002 0-0.552 0-1 0.448-1 1s0.448 1 1 1c0.001 0 0.001-0 0.002-0v0h18.997v-2h-18.997z"></path>
</symbol>
<symbol id="icon-folder-open" viewBox="0 0 32 32">
<title>folder-open</title>
<path d="M26 30l6-16h-26l-6 16zM4 12l-4 18v-26h9l4 4h13v4z"></path>
</symbol>
<symbol id="icon-drawer2" viewBox="0 0 32 32">
<title>drawer2</title>
<path d="M31.781 20.375l-8-10c-0.19-0.237-0.477-0.375-0.781-0.375h-14c-0.304 0-0.591 0.138-0.781 0.375l-8 10c-0.142 0.177-0.219 0.398-0.219 0.625v9c0 1.105 0.895 2 2 2h28c1.105 0 2-0.895 2-2v-9c0-0.227-0.077-0.447-0.219-0.625zM30 22h-7l-4 4h-6l-4-4h-7v-0.649l7.481-9.351h13.039l7.481 9.351v0.649z"></path>
<path d="M23 16h-14c-0.552 0-1-0.448-1-1s0.448-1 1-1h14c0.552 0 1 0.448 1 1s-0.448 1-1 1z"></path>
<path d="M25 20h-18c-0.552 0-1-0.448-1-1s0.448-1 1-1h18c0.552 0 1 0.448 1 1s-0.448 1-1 1z"></path>
</symbol>
<symbol id="icon-database" viewBox="0 0 32 32">
<title>database</title>
<path d="M16 0c-8.837 0-16 2.239-16 5v4c0 2.761 7.163 5 16 5s16-2.239 16-5v-4c0-2.761-7.163-5-16-5z"></path>
<path d="M16 17c-8.837 0-16-2.239-16-5v6c0 2.761 7.163 5 16 5s16-2.239 16-5v-6c0 2.761-7.163 5-16 5z"></path>
<path d="M16 26c-8.837 0-16-2.239-16-5v6c0 2.761 7.163 5 16 5s16-2.239 16-5v-6c0 2.761-7.163 5-16 5z"></path>
</symbol>
<symbol id="icon-search4" viewBox="0 0 32 32">
<title>search4</title>
<path d="M31.008 27.231l-7.58-6.447c-0.784-0.705-1.622-1.029-2.299-0.998 1.789-2.096 2.87-4.815 2.87-7.787 0-6.627-5.373-12-12-12s-12 5.373-12 12 5.373 12 12 12c2.972 0 5.691-1.081 7.787-2.87-0.031 0.677 0.293 1.515 0.998 2.299l6.447 7.58c1.104 1.226 2.907 1.33 4.007 0.23s0.997-2.903-0.23-4.007zM12 20c-4.418 0-8-3.582-8-8s3.582-8 8-8 8 3.582 8 8-3.582 8-8 8z"></path>
</symbol>
<symbol id="icon-zoom-in4" viewBox="0 0 32 32">
<title>zoom-in4</title>
<path d="M31.008 27.231l-7.58-6.447c-0.784-0.705-1.622-1.029-2.299-0.998 1.789-2.096 2.87-4.815 2.87-7.787 0-6.627-5.373-12-12-12s-12 5.373-12 12 5.373 12 12 12c2.972 0 5.691-1.081 7.787-2.87-0.031 0.677 0.293 1.515 0.998 2.299l6.447 7.58c1.104 1.226 2.907 1.33 4.007 0.23s0.997-2.903-0.23-4.007zM12 20c-4.418 0-8-3.582-8-8s3.582-8 8-8 8 3.582 8 8-3.582 8-8 8zM14 6h-4v4h-4v4h4v4h4v-4h4v-4h-4z"></path>
</symbol>
<symbol id="icon-zoom-out4" viewBox="0 0 32 32">
<title>zoom-out4</title>
<path d="M31.008 27.231l-7.58-6.447c-0.784-0.705-1.622-1.029-2.299-0.998 1.789-2.096 2.87-4.815 2.87-7.787 0-6.627-5.373-12-12-12s-12 5.373-12 12 5.373 12 12 12c2.972 0 5.691-1.081 7.787-2.87-0.031 0.677 0.293 1.515 0.998 2.299l6.447 7.58c1.104 1.226 2.907 1.33 4.007 0.23s0.997-2.903-0.23-4.007zM12 20c-4.418 0-8-3.582-8-8s3.582-8 8-8 8 3.582 8 8-3.582 8-8 8zM6 10h12v4h-12z"></path>
</symbol>
<symbol id="icon-list-numbered" viewBox="0 0 32 32">
<title>list-numbered</title>
<path d="M12 26h20v4h-20zM12 14h20v4h-20zM12 2h20v4h-20zM6 0v8h-2v-6h-2v-2zM4 16.438v1.563h4v2h-6v-4.563l4-1.875v-1.563h-4v-2h6v4.563zM8 22v10h-6v-2h4v-2h-4v-2h4v-2h-4v-2z"></path>
</symbol>
<symbol id="icon-link5" viewBox="0 0 32 32">
<title>link5</title>
<path d="M13.757 19.868c-0.416 0-0.832-0.159-1.149-0.476-2.973-2.973-2.973-7.81 0-10.783l6-6c1.44-1.44 3.355-2.233 5.392-2.233s3.951 0.793 5.392 2.233c2.973 2.973 2.973 7.81 0 10.783l-2.743 2.743c-0.635 0.635-1.663 0.635-2.298 0s-0.635-1.663 0-2.298l2.743-2.743c1.706-1.706 1.706-4.481 0-6.187-0.826-0.826-1.925-1.281-3.094-1.281s-2.267 0.455-3.094 1.281l-6 6c-1.706 1.706-1.706 4.481 0 6.187 0.635 0.635 0.635 1.663 0 2.298-0.317 0.317-0.733 0.476-1.149 0.476z"></path>
<path d="M8 31.625c-2.037 0-3.952-0.793-5.392-2.233-2.973-2.973-2.973-7.81 0-10.783l2.743-2.743c0.635-0.635 1.664-0.635 2.298 0s0.635 1.663 0 2.298l-2.743 2.743c-1.706 1.706-1.706 4.481 0 6.187 0.826 0.826 1.925 1.281 3.094 1.281s2.267-0.455 3.094-1.281l6-6c1.706-1.706 1.706-4.481 0-6.187-0.635-0.635-0.635-1.663 0-2.298s1.663-0.635 2.298 0c2.973 2.973 2.973 7.81 0 10.783l-6 6c-1.44 1.44-3.355 2.233-5.392 2.233z"></path>
</symbol>
<symbol id="icon-filter3" viewBox="0 0 32 32">
<title>filter3</title>
<path d="M16 0c-8.837 0-16 2.239-16 5v3l12 12v10c0 1.105 1.791 2 4 2s4-0.895 4-2v-10l12-12v-3c0-2.761-7.163-5-16-5zM2.95 4.338c0.748-0.427 1.799-0.832 3.040-1.171 2.748-0.752 6.303-1.167 10.011-1.167s7.262 0.414 10.011 1.167c1.241 0.34 2.292 0.745 3.040 1.171 0.494 0.281 0.76 0.519 0.884 0.662-0.124 0.142-0.391 0.38-0.884 0.662-0.748 0.427-1.8 0.832-3.040 1.171-2.748 0.752-6.303 1.167-10.011 1.167s-7.262-0.414-10.011-1.167c-1.24-0.34-2.292-0.745-3.040-1.171-0.494-0.282-0.76-0.519-0.884-0.662 0.124-0.142 0.391-0.38 0.884-0.662z"></path>
</symbol>
<symbol id="icon-funnel" viewBox="0 0 20 20">
<title>funnel</title>
<path d="M10 1c-4.908 0-8 1.512-8 3.001v2c0 0.918 6 6 6 6v6c-0.001 0.684 1 1 2 1s2.001-0.316 2-1v-6c0 0 6-5.082 6-6v-2c0-1.489-3.092-3.001-8-3.001zM10 6.123c-3.591-0.001-6.138-1.333-6.138-1.831-0.002-0.495 2.548-1.831 6.138-1.829 3.59-0.002 6.14 1.334 6.138 1.828 0 0.499-2.547 1.831-6.138 1.832z"></path>
</symbol>
<symbol id="icon-file-numbers" viewBox="0 0 32 32">
<title>file-numbers</title>
<path d="M9 15v5h-1v-7h1l3 5v-5h1v7h-1l-3-5zM18 13h1v4.994c0 1.119-0.898 2.006-2.005 2.006h-0.99c-1.111 0-2.005-0.898-2.005-2.006v-4.994h1v4.997c0 0.554 0.443 1.003 0.999 1.003h1.002c0.552 0 0.999-0.438 0.999-1.003v-4.997zM22.5 16l-1.5-3h-1v7h1v-5l1 2h1l1-2v5h1v-7h-1l-1.5 3zM8.007 10h16.986c1.671 0 3.007 1.343 3.007 2.999v7.002c0 1.657-1.346 2.999-3.007 2.999h-16.986c-1.671 0-3.007-1.343-3.007-2.999v-7.002c0-1.657 1.346-2.999 3.007-2.999zM7.995 11c-1.102 0-1.995 0.9-1.995 1.992v7.016c0 1.1 0.902 1.992 1.995 1.992h17.011c1.102 0 1.995-0.9 1.995-1.992v-7.016c0-1.1-0.902-1.992-1.995-1.992h-17.011z"></path>
</symbol>
<symbol id="icon-folder-forbidden" viewBox="0 0 32 32">
<title>folder-forbidden</title>
<path d="M30.016 20.691l-6.325 6.325c0.77 0.616 1.746 0.984 2.809 0.984 2.485 0 4.5-2.015 4.5-4.5 0-1.063-0.368-2.039-0.984-2.809zM29.309 19.984c-0.77-0.616-1.746-0.984-2.809-0.984-2.485 0-4.5 2.015-4.5 4.5 0 1.063 0.368 2.039 0.984 2.809l6.325-6.325zM21.6 26v0c-0.383-0.75-0.6-1.6-0.6-2.5 0-3.038 2.462-5.5 5.5-5.5 0.52 0 1.023 0.072 1.5 0.207v-4.207h-27v11.008c0 0.548 0.446 0.992 0.993 0.992h19.607zM22.257 27h-20.264c-1.094 0-1.993-0.891-1.993-1.991v-18.018c0-1.101 0.897-1.991 2.003-1.991h10.997l2 4h11.994c1.109 0 2.006 0.893 2.006 1.995v7.605c1.781 0.91 3 2.763 3 4.9 0 3.038-2.462 5.5-5.5 5.5-1.708 0-3.234-0.779-4.243-2v0 0zM1 13h27v-1.999c0-0.553-0.454-1.001-1.003-1.001h-12.637l-1.96-4h-10.408c-0.548 0-0.992 0.455-0.992 0.992v6.008z"></path>
</symbol>
<symbol id="icon-folder-cancel" viewBox="0 0 32 32">
<title>folder-cancel</title>
<path d="M26.5 24.207l-2.121 2.121-0.707-0.707 2.121-2.121-2.121-2.121 0.707-0.707 2.121 2.121 2.121-2.121 0.707 0.707-2.121 2.121 2.121 2.121-0.707 0.707-2.121-2.121zM21.6 26v0c-0.383-0.75-0.6-1.6-0.6-2.5 0-3.038 2.462-5.5 5.5-5.5 0.52 0 1.023 0.072 1.5 0.207v-4.207h-27v11.008c0 0.548 0.446 0.992 0.993 0.992h19.607zM22.257 27h-20.264c-1.094 0-1.993-0.891-1.993-1.991v-18.018c0-1.101 0.897-1.991 2.003-1.991h10.997l2 4h11.994c1.109 0 2.006 0.893 2.006 1.995v7.605c1.781 0.91 3 2.763 3 4.9 0 3.038-2.462 5.5-5.5 5.5-1.708 0-3.234-0.779-4.243-2v0 0zM1 13h27v-1.999c0-0.553-0.454-1.001-1.003-1.001h-12.637l-1.96-4h-10.408c-0.548 0-0.992 0.455-0.992 0.992v6.008zM26.5 28c2.485 0 4.5-2.015 4.5-4.5s-2.015-4.5-4.5-4.5c-2.485 0-4.5 2.015-4.5 4.5s2.015 4.5 4.5 4.5v0z"></path>
</symbol>
<symbol id="icon-folder-locked" viewBox="0 0 32 32">
<title>folder-locked</title>
<path d="M23 25v-2.997c0-0.565 0.447-1.003 0.998-1.003h0.002v-1.495c0-1.938 1.567-3.505 3.5-3.505 0.17 0 0.337 0.012 0.5 0.036v-3.036h-27v11.008c0 0.548 0.446 0.992 0.993 0.992h21.007zM23 26h-21.007c-1.094 0-1.993-0.891-1.993-1.991v-18.018c0-1.101 0.897-1.991 2.003-1.991h10.997l2 4h11.994c1.109 0 2.006 0.893 2.006 1.995v6.343c1.181 0.563 2 1.77 2 3.167v1.495h0.002c0.551 0 0.998 0.449 0.998 1.003v4.994c0 0.565-0.447 1.003-0.998 1.003h-7.005c-0.551 0-0.998-0.449-0.998-1.003v-0.997zM25 21h5v-1.491c0-1.386-1.11-2.509-2.5-2.509-1.381 0-2.5 1.112-2.5 2.509v1.491zM1 12h27v-1.999c0-0.553-0.454-1.001-1.003-1.001h-12.637l-1.96-4h-10.408c-0.548 0-0.992 0.455-0.992 0.992v6.008zM24.503 22c-0.278 0-0.503 0.215-0.503 0.498v4.005c0 0.275 0.233 0.498 0.503 0.498h5.993c0.278 0 0.503-0.215 0.503-0.498v-4.005c0-0.275-0.233-0.498-0.503-0.498h-5.993z"></path>
</symbol>
<symbol id="icon-folder-unlocked" viewBox="0 0 32 32">
<title>folder-unlocked</title>
<path d="M23 25h-21.007c-0.547 0-0.993-0.444-0.993-0.992v-11.008h27v2.036c-0.163-0.023-0.33-0.036-0.5-0.036-1.933 0-3.5 1.563-3.5 3.498v2.503c-0.552 0-1 0.438-1 1.003v2.997zM29 15.337v-5.342c0-1.102-0.897-1.995-2.006-1.995h-11.994l-2-4h-10.997c-1.106 0-2.003 0.89-2.003 1.991v18.018c0 1.1 0.9 1.991 1.993 1.991h21.007v0.997c0 0.554 0.446 1.003 0.998 1.003h7.005c0.551 0 0.998-0.438 0.998-1.003v-4.994c0-0.554-0.443-1.003-0.999-1.003h-6.001v-2.491c0-1.397 1.119-2.509 2.5-2.509 1.39 0 2.5 1.123 2.5 2.509v0.491h1v-0.503c0-1.395-0.819-2.598-2-3.16v0 0zM1 12v-6.008c0-0.537 0.444-0.992 0.992-0.992h10.408l1.96 4h12.637c0.549 0 1.003 0.448 1.003 1.001v1.999h-27zM24.503 22h5.993c0.271 0 0.503 0.223 0.503 0.498v4.005c0 0.283-0.225 0.498-0.503 0.498h-5.993c-0.271 0-0.503-0.223-0.503-0.498v-4.005c0-0.283 0.225-0.498 0.503-0.498z"></path>
</symbol>
<symbol id="icon-folder-information" viewBox="0 0 32 32">
<title>folder-information</title>
<path d="M21.6 25v0c-0.383-0.75-0.6-1.6-0.6-2.5 0-3.038 2.462-5.5 5.5-5.5 0.52 0 1.023 0.072 1.5 0.207v-4.207h-27v11.008c0 0.548 0.446 0.992 0.993 0.992h19.607zM22.257 26h-20.264c-1.094 0-1.993-0.891-1.993-1.991v-18.018c0-1.101 0.897-1.991 2.003-1.991h10.997l2 4h11.994c1.109 0 2.006 0.893 2.006 1.995v7.605c1.781 0.91 3 2.763 3 4.9 0 3.038-2.462 5.5-5.5 5.5-1.708 0-3.234-0.779-4.243-2v0 0zM1 12h27v-1.999c0-0.553-0.454-1.001-1.003-1.001h-12.637l-1.96-4h-10.408c-0.548 0-0.992 0.455-0.992 0.992v6.008zM26.5 27c2.485 0 4.5-2.015 4.5-4.5s-2.015-4.5-4.5-4.5c-2.485 0-4.5 2.015-4.5 4.5s2.015 4.5 4.5 4.5v0zM26 20v1h1v-1h-1zM25 22v1h1v1h-1v1h3v-1h-1v-2h-2z"></path>
</symbol>
<symbol id="icon-folder-add2" viewBox="0 0 32 32">
<title>folder-add2</title>
<path d="M26 23v-3h1v3h3v1h-3v3h-1v-3h-3v-1h3zM21.6 26v0c-0.383-0.75-0.6-1.6-0.6-2.5 0-3.038 2.462-5.5 5.5-5.5 0.52 0 1.023 0.072 1.5 0.207v-4.207h-27v11.008c0 0.548 0.446 0.992 0.993 0.992h19.607zM22.257 27h-20.264c-1.094 0-1.993-0.891-1.993-1.991v-18.018c0-1.101 0.897-1.991 2.003-1.991h10.997l2 4h11.994c1.109 0 2.006 0.893 2.006 1.995v7.605c1.781 0.91 3 2.763 3 4.9 0 3.038-2.462 5.5-5.5 5.5-1.708 0-3.234-0.779-4.243-2v0 0zM1 13h27v-1.999c0-0.553-0.454-1.001-1.003-1.001h-12.637l-1.96-4h-10.408c-0.548 0-0.992 0.455-0.992 0.992v6.008zM26.5 28c2.485 0 4.5-2.015 4.5-4.5s-2.015-4.5-4.5-4.5c-2.485 0-4.5 2.015-4.5 4.5s2.015 4.5 4.5 4.5v0z"></path>
</symbol>
<symbol id="icon-folder-search" viewBox="0 0 32 32">
<title>folder-search</title>
<path d="M16.309 20.016c-0.77 0.616-1.746 0.984-2.809 0.984-2.485 0-4.5-2.015-4.5-4.5s2.015-4.5 4.5-4.5c2.485 0 4.5 2.015 4.5 4.5 0 1.063-0.368 2.039-0.984 2.809l5.348 5.348-0.707 0.707-5.348-5.348zM16 9h11.994c1.109 0 2.006 0.893 2.006 1.995v14.010c0 1.102-0.892 1.995-1.993 1.995h-25.013c-1.094 0-1.993-0.891-1.993-1.991v-18.018c0-1.101 0.897-1.991 2.003-1.991h10.997l2 4zM15.36 10l-1.96-4h-10.408c-0.548 0-0.992 0.455-0.992 0.992v18.016c0 0.548 0.446 0.992 0.993 0.992h25.014c0.548 0 0.993-0.445 0.993-1.001v-13.998c0-0.553-0.454-1.001-1.003-1.001h-12.637zM13.5 20c1.933 0 3.5-1.567 3.5-3.5s-1.567-3.5-3.5-3.5c-1.933 0-3.5 1.567-3.5 3.5s1.567 3.5 3.5 3.5v0z"></path>
</symbol>
<symbol id="icon-folder" viewBox="0 0 32 32">
<title>folder</title>
<path d="M16 9h11.994c1.109 0 2.006 0.893 2.006 1.995v14.010c0 1.102-0.892 1.995-1.993 1.995h-25.013c-1.094 0-1.993-0.891-1.993-1.991v-18.018c0-1.101 0.897-1.991 2.003-1.991h10.997l2 4zM15.36 10l-1.96-4h-10.408c-0.548 0-0.992 0.455-0.992 0.992v18.016c0 0.548 0.446 0.992 0.993 0.992h25.014c0.548 0 0.993-0.445 0.993-1.001v-13.998c0-0.553-0.454-1.001-1.003-1.001h-12.637z"></path>
</symbol>
<symbol id="icon-inbox" viewBox="0 0 32 32">
<title>inbox</title>
<path d="M21 16h6.775l-4.375-7h-13.8l-4.375 7h6.775v2.002c0 1.103 0.896 1.998 1.997 1.998h5.005c1.103 0 1.997-0.898 1.997-1.998v-2.002zM22 17v1.5c0 1.39-1.118 2.5-2.496 2.5h-6.008c-1.381 0-2.496-1.119-2.496-2.5v-1.5h-6v7h23v-7h-6zM4 16.5v-0.5l5-8h15l5 8v9h-25v-8.5z"></path>
</symbol>
<symbol id="icon-basket2" viewBox="0 0 42 32">
<title>basket2</title>
<path d="M39.5 14h-37c-0.154 0-0.3 0.071-0.395 0.192s-0.128 0.279-0.091 0.429l4.006 16.017c0.096 0.337 0.391 1.362 1.48 1.362h27c1.093 0 1.385-1.026 1.485-1.379l4-16c0.037-0.149 0.004-0.308-0.091-0.429s-0.24-0.192-0.394-0.192zM35.020 30.363c-0.182 0.637-0.37 0.637-0.52 0.637h-27c-0.149 0-0.336 0-0.515-0.621l-3.844-15.379h35.719l-3.84 15.363zM18.5 28c0.276 0 0.5-0.224 0.5-0.5v-9c0-0.276-0.224-0.5-0.5-0.5s-0.5 0.224-0.5 0.5v9c0 0.276 0.224 0.5 0.5 0.5zM11.499 28c0.019 0 0.037-0.001 0.057-0.003 0.274-0.031 0.472-0.278 0.441-0.552l-1-9c-0.030-0.275-0.27-0.469-0.553-0.442-0.274 0.031-0.472 0.278-0.441 0.552l1 9c0.028 0.256 0.245 0.445 0.496 0.445zM24.5 28c0.276 0 0.5-0.224 0.5-0.5v-9c0-0.276-0.224-0.5-0.5-0.5s-0.5 0.224-0.5 0.5v9c0 0.276 0.224 0.5 0.5 0.5zM30.444 27.997c0.020 0.002 0.038 0.003 0.057 0.003 0.251 0 0.468-0.189 0.496-0.445l1-9c0.030-0.274-0.167-0.521-0.441-0.552-0.287-0.028-0.522 0.167-0.553 0.442l-1 9c-0.030 0.274 0.167 0.521 0.441 0.552zM34.5 12c0.116 0 0.232-0.040 0.327-0.122 0.209-0.181 0.231-0.496 0.051-0.705l-9.5-11c-0.181-0.21-0.496-0.231-0.705-0.052-0.209 0.181-0.231 0.496-0.051 0.705l9.5 11c0.099 0.115 0.238 0.174 0.378 0.174zM17.816 0.113c-0.213-0.173-0.528-0.144-0.703 0.071l-9 11c-0.175 0.213-0.144 0.528 0.070 0.704 0.093 0.075 0.206 0.112 0.317 0.112 0.145 0 0.288-0.062 0.387-0.184l9-11c0.175-0.213 0.143-0.528-0.071-0.703zM41.5 10h-4c-0.276 0-0.5 0.224-0.5 0.5s0.224 0.5 0.5 0.5h4c0.276 0 0.5-0.224 0.5-0.5s-0.224-0.5-0.5-0.5zM13.5 11h16c0.276 0 0.5-0.224 0.5-0.5s-0.224-0.5-0.5-0.5h-16c-0.276 0-0.5 0.224-0.5 0.5s0.224 0.5 0.5 0.5zM0.5 11h5c0.276 0 0.5-0.224 0.5-0.5s-0.224-0.5-0.5-0.5h-5c-0.276 0-0.5 0.224-0.5 0.5s0.224 0.5 0.5 0.5z"></path>
</symbol>
<symbol id="icon-search" viewBox="0 0 33 32">
<title>search</title>
<path d="M1.5 32h21c0.827 0 1.5-0.673 1.5-1.5v-7.5c0-0.010-0.005-0.018-0.006-0.028 0.055-0.035 0.112-0.068 0.166-0.105l7.986 7.986c0.098 0.098 0.226 0.147 0.354 0.147s0.256-0.049 0.354-0.146c0.195-0.195 0.195-0.512 0-0.707l-7.913-7.913c1.264-1.187 2.059-2.868 2.059-4.734 0-2.297-1.201-4.316-3.006-5.472 0.001-0.010 0.006-0.018 0.006-0.028v-2.5c0-0.017-0.008-0.031-0.009-0.047-0.002-0.023-0.008-0.043-0.013-0.065-0.017-0.071-0.046-0.135-0.090-0.191-0.007-0.009-0.006-0.020-0.013-0.029l-8-9c-0.003-0.003-0.007-0.003-0.010-0.006-0.060-0.065-0.137-0.108-0.223-0.134-0.019-0.006-0.036-0.008-0.056-0.011-0.029-0.005-0.056-0.017-0.086-0.017h-14c-0.827 0-1.5 0.673-1.5 1.5v29c0 0.827 0.673 1.5 1.5 1.5zM26 17.5c0 3.033-2.468 5.5-5.5 5.5s-5.5-2.467-5.5-5.5 2.468-5.5 5.5-5.5 5.5 2.467 5.5 5.5zM16 1.815l6.387 7.185h-5.887c-0.22 0-0.5-0.42-0.5-0.75v-6.435zM1 1.5c0-0.276 0.225-0.5 0.5-0.5h13.5v7.25c0 0.809 0.655 1.75 1.5 1.75h6.5v1.501c-0.77-0.322-1.614-0.501-2.5-0.501-1.838 0-3.496 0.77-4.679 2h-10.321c-0.276 0-0.5 0.224-0.5 0.5s0.224 0.5 0.5 0.5h9.532c-0.565 0.879-0.922 1.901-1.006 3h-8.526c-0.276 0-0.5 0.224-0.5 0.5s0.224 0.5 0.5 0.5h8.525c0.084 1.099 0.442 2.121 1.006 3h-9.531c-0.276 0-0.5 0.224-0.5 0.5s0.224 0.5 0.5 0.5h10.25c0.021 0 0.039-0.009 0.060-0.012 1.184 1.237 2.847 2.012 4.69 2.012 0.886 0 1.73-0.179 2.5-0.502v7.002c0 0.276-0.225 0.5-0.5 0.5h-21c-0.28 0-0.5-0.22-0.5-0.5v-29zM5.5 10h6c0.276 0 0.5-0.224 0.5-0.5s-0.224-0.5-0.5-0.5h-6c-0.276 0-0.5 0.224-0.5 0.5s0.224 0.5 0.5 0.5zM5.5 26h13c0.276 0 0.5-0.224 0.5-0.5s-0.224-0.5-0.5-0.5h-13c-0.276 0-0.5 0.224-0.5 0.5s0.224 0.5 0.5 0.5z"></path>
</symbol>
<symbol id="icon-book-open" viewBox="0 0 42 32">
<title>book-open</title>
<path d="M37.5 1h-16c-0.397 0-0.74 0.136-1 0.362-0.26-0.226-0.603-0.362-1-0.362h-16c-0.869 0-1.5 0.631-1.5 1.5v28c0 0.869 0.631 1.5 1.5 1.5h16c0.397 0 0.74-0.136 1-0.362 0.26 0.226 0.603 0.362 1 0.362h16c0.869 0 1.5-0.631 1.5-1.5v-28c0-0.869-0.631-1.5-1.5-1.5zM19.5 31h-16c-0.313 0-0.5-0.187-0.5-0.5v-28c0-0.313 0.187-0.5 0.5-0.5h16c0.313 0 0.5 0.187 0.5 0.5v28c0 0.313-0.187 0.5-0.5 0.5zM38 30.5c0 0.313-0.187 0.5-0.5 0.5h-16c-0.313 0-0.5-0.187-0.5-0.5v-28c0-0.313 0.187-0.5 0.5-0.5h16c0.313 0 0.5 0.187 0.5 0.5v28zM40.5 3c-0.276 0-0.5 0.224-0.5 0.5v26c0 0.276 0.224 0.5 0.5 0.5s0.5-0.224 0.5-0.5v-26c0-0.276-0.224-0.5-0.5-0.5zM0.5 30c0.276 0 0.5-0.224 0.5-0.5v-26c0-0.276-0.224-0.5-0.5-0.5s-0.5 0.224-0.5 0.5v26c0 0.276 0.224 0.5 0.5 0.5zM17.5 10h-12c-0.276 0-0.5 0.224-0.5 0.5s0.224 0.5 0.5 0.5h12c0.276 0 0.5-0.224 0.5-0.5s-0.224-0.5-0.5-0.5zM17.5 14h-12c-0.276 0-0.5 0.224-0.5 0.5s0.224 0.5 0.5 0.5h12c0.276 0 0.5-0.224 0.5-0.5s-0.224-0.5-0.5-0.5zM17.5 6h-12c-0.276 0-0.5 0.224-0.5 0.5s0.224 0.5 0.5 0.5h12c0.276 0 0.5-0.224 0.5-0.5s-0.224-0.5-0.5-0.5zM17.5 18h-12c-0.276 0-0.5 0.224-0.5 0.5s0.224 0.5 0.5 0.5h12c0.276 0 0.5-0.224 0.5-0.5s-0.224-0.5-0.5-0.5zM17.5 22h-12c-0.276 0-0.5 0.224-0.5 0.5s0.224 0.5 0.5 0.5h12c0.276 0 0.5-0.224 0.5-0.5s-0.224-0.5-0.5-0.5zM17.5 26h-12c-0.276 0-0.5 0.224-0.5 0.5s0.224 0.5 0.5 0.5h12c0.276 0 0.5-0.224 0.5-0.5s-0.224-0.5-0.5-0.5zM35.5 10h-12c-0.276 0-0.5 0.224-0.5 0.5s0.224 0.5 0.5 0.5h12c0.276 0 0.5-0.224 0.5-0.5s-0.224-0.5-0.5-0.5zM35.5 14h-12c-0.276 0-0.5 0.224-0.5 0.5s0.224 0.5 0.5 0.5h12c0.276 0 0.5-0.224 0.5-0.5s-0.224-0.5-0.5-0.5zM35.5 6h-12c-0.276 0-0.5 0.224-0.5 0.5s0.224 0.5 0.5 0.5h12c0.276 0 0.5-0.224 0.5-0.5s-0.224-0.5-0.5-0.5zM35.5 18h-12c-0.276 0-0.5 0.224-0.5 0.5s0.224 0.5 0.5 0.5h12c0.276 0 0.5-0.224 0.5-0.5s-0.224-0.5-0.5-0.5zM35.5 22h-12c-0.276 0-0.5 0.224-0.5 0.5s0.224 0.5 0.5 0.5h12c0.276 0 0.5-0.224 0.5-0.5s-0.224-0.5-0.5-0.5zM35.5 26h-12c-0.276 0-0.5 0.224-0.5 0.5s0.224 0.5 0.5 0.5h12c0.276 0 0.5-0.224 0.5-0.5s-0.224-0.5-0.5-0.5z"></path>
</symbol>
<symbol id="icon-basket" viewBox="0 0 32 32">
<title>basket</title>
<path d="M0 14v-3h3.75l7.531-7.532c-0.050-0.149-0.093-0.301-0.093-0.468 0-0.829 0.671-1.5 1.5-1.5 0.828 0 1.5 0.671 1.5 1.5s-0.672 1.5-1.5 1.5c-0.111 0-0.209-0.041-0.312-0.063l-6.564 6.563h19.354l-6.525-6.579c-0.129 0.036-0.252 0.079-0.391 0.079-0.828 0-1.5-0.672-1.5-1.5s0.672-1.5 1.5-1.5 1.5 0.671 1.5 1.5c0 0.153-0.045 0.293-0.088 0.433l7.567 7.567h3.771v3h-31zM24.869 28.902c-0.293 1.172-1.105 1.107-1.105 1.107l-16.595 0.032c-0.846 0-1.073-1.072-1.073-1.072l-4.387-13.955 27.574-0.026-4.414 13.914zM9.999 17h-1v5h1v-5zM9.999 23h-1v5h1v-5zM11.999 17h-0.999v5h0.999v-5zM11.999 23h-0.999v5h0.999v-5zM13.999 17h-1v5h1v-5zM13.999 23h-1v5h1v-5zM16 17h-1v5h1v-5zM16 23h-1v5h1v-5zM18 17h-1v5h1v-5zM18 23h-1v5h1v-5zM20 17h-1v5h1v-5zM20 23h-1v5h1v-5zM22 17h-1v5h1v-5zM22 23h-1v5h1v-5z"></path>
</symbol>
<symbol id="icon-zoom-out2" viewBox="0 0 32 32">
<title>zoom-out2</title>
<path d="M7.993 11.013h5.016v1.003h-5.016zM29.156 27.123l-5.676-5.674c-0.656-0.658-1.643-0.73-2.41-0.283l-3.035-3.035c1.6-1.777 2.58-4.121 2.58-6.7 0-5.541-4.49-10.032-10.031-10.032s-10.031 4.491-10.031 10.032c0 5.54 4.491 10.031 10.031 10.031 2.237 0 4.296-0.741 5.965-1.979l3.104 3.102c-0.447 0.769-0.375 1.754 0.281 2.412l5.676 5.674c0.783 0.784 2.053 0.784 2.838 0l0.709-0.709c0.782-0.784 0.782-2.055-0.001-2.839zM10.563 18.912c-4.155 0-7.523-3.368-7.523-7.523s3.368-7.523 7.523-7.523 7.524 3.368 7.524 7.523-3.368 7.523-7.524 7.523z"></path>
</symbol>
<symbol id="icon-zoom-in3" viewBox="0 0 32 32">
<title>zoom-in3</title>
<path d="M29.156 29.961l-0.709 0.709c-0.785 0.784-2.055 0.784-2.838 0l-5.676-5.674c-0.656-0.658-0.729-1.644-0.281-2.412l-3.104-3.102c-1.669 1.238-3.728 1.979-5.965 1.979-5.54 0-10.031-4.491-10.031-10.031s4.491-10.032 10.031-10.032c5.541 0 10.031 4.491 10.031 10.032 0 2.579-0.98 4.923-2.58 6.7l3.035 3.035c0.768-0.447 1.754-0.375 2.41 0.283l5.676 5.674c0.784 0.785 0.784 2.056 0.001 2.839zM18.088 11.389c0-4.155-3.369-7.523-7.524-7.523s-7.524 3.367-7.524 7.523 3.368 7.523 7.523 7.523 7.525-3.368 7.525-7.523zM11.002 13.959h-1.003v-1.943h-2.006v-1.003h2.006v-2.007h1.003v2.007h2.007v1.003h-2.007v1.943z"></path>
</symbol>
<symbol id="icon-magnifier6" viewBox="0 0 32 32">
<title>magnifier6</title>
<path d="M29.156 29.961l-0.709 0.709c-0.785 0.784-2.055 0.784-2.838 0l-5.676-5.674c-0.656-0.658-0.729-1.644-0.281-2.412l-3.104-3.102c-1.669 1.238-3.728 1.979-5.965 1.979-5.54 0-10.031-4.491-10.031-10.031s4.491-10.032 10.031-10.032c5.541 0 10.031 4.491 10.031 10.032 0 2.579-0.98 4.923-2.58 6.7l3.035 3.035c0.768-0.447 1.754-0.375 2.41 0.283l5.676 5.674c0.784 0.785 0.784 2.056 0.001 2.839zM18.088 11.389c0-4.155-3.369-7.523-7.524-7.523s-7.524 3.367-7.524 7.523 3.368 7.523 7.523 7.523 7.525-3.368 7.525-7.523z"></path>
</symbol>
<symbol id="icon-link2" viewBox="0 0 32 32">
<title>link2</title>
<path d="M25.33 9.84l-3.5 6.062c-0.553 0.956-1.775 1.284-2.732 0.731l-0.865-0.5 1-1.731c0.478 0.275 1.090 0.112 1.365-0.366l2.5-4.33c0.276-0.479 0.112-1.090-0.365-1.366l-3.465-2c-0.479-0.276-1.090-0.112-1.365 0.366l-2.5 4.33c-0.277 0.479-0.113 1.090 0.365 1.366l-1 1.731-0.865-0.5c-0.957-0.552-1.285-1.775-0.732-2.731l3.5-6.062c0.553-0.957 1.775-1.284 2.732-0.732l5.195 3c0.957 0.552 1.285 1.775 0.732 2.732zM13.5 20.33c-0.479-0.276-0.643-0.888-0.366-1.366l4-6.928c0.276-0.479 0.888-0.643 1.366-0.366s0.643 0.888 0.365 1.366l-4 6.928c-0.275 0.478-0.886 0.641-1.365 0.366zM12.768 17.599v0c-0.479-0.276-1.090-0.112-1.366 0.365l-2.5 4.33c-0.276 0.479-0.112 1.090 0.366 1.366l3.465 2c0.478 0.276 1.090 0.112 1.365-0.366l2.5-4.33c0.276-0.478 0.112-1.090-0.365-1.366v0l1-1.731 0.865 0.5c0.957 0.552 1.285 1.774 0.732 2.731l-3.5 6.062c-0.553 0.957-1.775 1.284-2.732 0.732l-5.196-3c-0.957-0.553-1.285-1.775-0.732-2.732l3.5-6.062c0.553-0.957 1.776-1.285 2.733-0.732l0.865 0.5-1 1.733z"></path>
</symbol>
<symbol id="icon-cabinet" viewBox="0 0 32 32">
<title>cabinet</title>
<path d="M5 31v-25l4.167-4h12.667l4.166 4v25h-21zM6 30h19v-23h-19v23zM7 19h17v10h-17v-10zM13 23v1h5v-3h-1v2h-3v-2h-1v2zM7 8h17v10h-17v-10zM13 13h5v-3h-1v2h-3v-2h-1v3z"></path>
</symbol>
</defs>
</svg>
